<?xml version="1.0" standalone="no"?>
<!DOCTYPE svg PUBLIC "-//W3C//DTD SVG 20010904//EN"
 "http://www.w3.org/TR/2001/REC-SVG-20010904/DTD/svg10.dtd">
<svg version="1.0" xmlns="http://www.w3.org/2000/svg"
 width="512.000000pt" height="512.000000pt" viewBox="0 0 512.000000 512.000000"
 preserveAspectRatio="xMidYMid meet">

<g transform="translate(0.000000,512.000000) scale(0.100000,-0.100000)"
fill="#ffffff" stroke="none">
<path d="M2310 4419 c-767 -86 -1405 -630 -1600 -1364 -48 -180 -63 -293 -63
-480 0 -185 11 -286 49 -440 13 -55 24 -103 24 -108 0 -4 -73 -6 -162 -5 -151
3 -167 1 -219 -20 l-56 -23 -42 -297 c-26 -184 -40 -309 -35 -327 21 -88 86
-158 180 -196 53 -21 75 -24 214 -25 222 -1 205 3 230 -49 44 -91 128 -136
254 -136 103 0 193 28 262 80 l49 37 97 -63 c659 -432 1521 -398 2156 85 l78
60 110 -5 c96 -5 121 -3 188 17 42 13 79 27 82 31 2 4 28 -4 56 -19 45 -23 64
-27 138 -26 65 0 96 5 132 22 l47 21 211 420 c115 232 210 423 210 426 0 2
-134 6 -297 7 -259 3 -298 5 -294 18 109 450 78 874 -94 1261 -240 542 -746
949 -1325 1068 -190 39 -401 50 -580 30z m-402 -685 c226 -47 402 -187 751
-599 310 -367 391 -441 570 -517 68 -29 86 -32 171 -32 114 0 173 20 268 91
110 84 175 196 191 328 l7 60 7 -43 c11 -63 -10 -168 -48 -248 -72 -150 -252
-269 -415 -275 -31 -1 -28 -3 19 -12 202 -39 448 143 501 371 17 74 9 195 -17
254 -79 177 -316 259 -573 198 -118 -28 -290 -115 -392 -196 l-82 -66 -28 33
c-72 85 -79 66 70 210 229 222 382 299 592 299 157 0 281 -50 386 -157 148
-149 218 -402 169 -611 -43 -183 -182 -382 -339 -486 -233 -154 -553 -167
-776 -31 -99 60 -206 161 -447 423 -370 402 -504 533 -588 575 -120 60 -202
80 -309 75 -84 -3 -102 -8 -170 -42 -99 -49 -175 -124 -221 -220 -110 -232
-45 -460 162 -569 92 -48 167 -67 299 -74 233 -12 432 44 633 180 l75 50 37
-43 c46 -53 48 -50 -89 -173 -232 -212 -431 -302 -662 -301 -96 1 -128 5 -195
27 -213 70 -367 230 -422 437 -24 94 -21 270 6 375 96 363 390 602 766 624
l120 7 -69 8 c-266 33 -548 -81 -720 -291 -105 -126 -171 -297 -184 -473 -6
-88 -7 -91 -12 -40 -9 94 8 226 41 324 72 216 201 368 398 470 173 89 346 116
519 80z m1302 -794 l0 -200 -55 0 -55 0 0 200 0 200 55 0 55 0 0 -200z m178 3
l-3 -198 -57 -3 -58 -3 0 201 0 200 60 0 60 0 -2 -197z m280 79 l134 -80 -160
-96 c-88 -53 -163 -96 -166 -96 -3 0 -6 88 -6 196 l0 196 33 -20 c17 -11 92
-56 165 -100z m-1998 8 l0 -79 123 74 c68 41 131 77 140 81 16 6 17 -12 17
-200 0 -119 -4 -206 -9 -206 -5 0 -46 23 -90 50 -44 28 -83 50 -86 50 -3 0
-23 11 -43 25 -20 14 -40 25 -44 25 -5 0 -8 -34 -8 -76 0 -66 -2 -75 -16 -70
-9 4 -89 50 -177 103 -111 66 -155 98 -146 104 8 4 84 51 169 103 85 52 158
95 163 95 4 1 7 -35 7 -79z m1596 -969 c54 -33 60 -65 41 -210 -10 -69 -17
-132 -17 -139 0 -8 44 27 97 77 l98 91 82 0 c46 0 83 -3 83 -7 0 -4 -44 -48
-97 -99 l-98 -91 78 -193 c51 -125 75 -196 68 -203 -16 -16 -98 -21 -131 -7
-47 19 -85 71 -120 162 -17 45 -35 87 -39 91 -4 4 -18 0 -30 -10 -17 -14 -25
-38 -36 -113 -8 -52 -15 -101 -15 -107 0 -10 -26 -13 -95 -13 -92 0 -95 1 -95
23 0 12 23 184 50 382 27 198 50 361 50 363 0 6 47 21 70 21 14 1 39 -8 56
-18z m669 -21 c-1 -19 -4 -61 -9 -92 l-7 -58 37 0 c36 0 36 -1 30 -31 -3 -17
-6 -40 -6 -50 0 -15 -7 -19 -34 -19 -19 0 -37 -4 -40 -8 -6 -10 -46 -306 -46
-343 0 -21 6 -29 31 -38 18 -6 45 -11 60 -11 24 0 29 -4 29 -24 0 -14 -5 -37
-10 -52 l-10 -26 -98 4 c-107 4 -147 19 -186 71 -20 27 -20 28 -2 150 43 297
35 267 67 267 33 0 35 2 43 63 l7 47 -30 0 c-35 0 -38 11 -21 71 18 63 104
122 170 116 22 -2 25 -7 25 -37z m299 -148 c3 -5 19 -73 37 -153 18 -79 35
-147 38 -151 4 -4 42 64 86 152 l80 160 92 0 c56 0 93 -4 93 -10 0 -6 -65
-141 -145 -300 -159 -318 -151 -308 -241 -297 -53 6 -89 34 -115 92 -9 22 -38
139 -64 260 -26 121 -49 228 -51 238 -5 15 4 17 90 17 52 0 97 -4 100 -8z
m-3672 -33 c30 -29 30 -32 25 -102 -3 -40 -13 -134 -23 -210 -16 -121 -17
-139 -4 -147 24 -15 146 -12 163 4 9 9 24 88 41 218 15 111 30 215 33 231 l6
27 93 0 94 0 -1 -27 c0 -16 -17 -147 -37 -292 l-37 -265 -35 -9 c-19 -5 -62
-6 -95 -3 -84 9 -83 9 -155 -3 -128 -20 -260 21 -277 87 -4 15 8 128 27 265
25 182 37 240 49 247 9 5 35 10 59 10 35 0 49 -6 74 -31z m1554 0 c83 -41 83
-40 45 -320 -19 -134 -35 -246 -38 -249 -11 -11 -164 -12 -178 0 -10 8 -24 9
-52 1 -53 -15 -210 -13 -256 3 -44 16 -76 42 -87 71 -4 12 -1 61 6 110 12 72
20 95 42 119 49 52 104 69 237 74 125 4 147 12 158 53 9 35 -26 59 -84 59 -52
0 -88 -13 -102 -36 -6 -10 -34 -14 -102 -14 -84 0 -95 2 -95 18 0 33 38 79 83
101 67 33 120 40 253 37 105 -2 129 -6 170 -27z m321 9 c8 -6 23 -6 45 0 60
19 134 24 194 13 62 -12 95 -31 126 -72 19 -25 18 -30 -12 -255 -17 -126 -35
-238 -40 -250 -19 -48 -138 -35 -166 17 -14 29 -14 45 13 231 27 199 27 200 8
215 -26 19 -139 14 -159 -7 -9 -10 -24 -86 -41 -210 -14 -107 -28 -210 -32
-227 l-5 -33 -98 0 -99 0 5 33 c3 17 22 149 43 292 l36 260 50 6 c57 7 115 2
132 -13z m589 -3 c12 -8 24 -25 28 -40 5 -21 -36 -367 -60 -502 l-6 -33 -94 0
c-72 0 -94 3 -94 13 0 8 18 139 40 292 22 153 40 279 40 281 0 6 67 11 95 7
17 -3 40 -11 51 -18z m-1811 -7 c2 -13 16 -83 30 -157 13 -74 26 -136 28 -138
2 -2 38 69 80 157 l77 160 95 0 c52 0 95 -2 95 -5 0 -16 -326 -694 -343 -712
-55 -62 -225 -90 -284 -47 -18 14 -29 32 -31 52 l-3 32 56 0 c74 0 112 20 120
63 4 22 -12 131 -49 319 -31 157 -56 288 -56 292 0 3 40 6 90 6 85 0 90 -1 95
-22z"/>
<path d="M1948 3643 c7 -3 16 -2 19 1 4 3 -2 6 -13 5 -11 0 -14 -3 -6 -6z"/>
<path d="M1915 1570 c-16 -4 -51 -8 -76 -9 -65 -1 -86 -22 -94 -92 -7 -68 2
-78 77 -86 36 -4 65 0 90 10 38 16 37 12 54 140 7 51 6 52 -51 37z"/>
</g>
</svg>
